<!-- Created with Inkscape (http://www.inkscape.org/) -->
<svg width="224.31" height="200" version="1.1" viewBox="0 0 224.31 200" xmlns="http://www.w3.org/2000/svg">
 <g>
  <path d="m39.686 121.14c0.81693-0.40846 1.7349-0.86637 2.7582-1.3802 1.019-0.5095 1.9391-1.019 2.756-1.5328v-40.754c-2.2466 1.0212-4.2889 2.4766-6.127 4.3663-1.8402 1.8918-3.3988 4.0094-4.6737 6.357-1.2791 2.3519-2.2745 4.8779-2.9882 7.5845-0.71588 2.7088-1.0706 5.3896-1.0706 8.0446v9.5c0 1.9413 0.76534 3.8052 2.296 5.5917 1.535 1.7886 3.2204 2.683 5.0564 2.683 0.71374 0 1.3802-0.15269 1.9929-0.46005m33.709 2.0918v6.0023l-28.195 0.0258v-9.5l-1.0706 0.6127c-3.7794 2.1455-7.9672 4.2674-12.566 6.3591-4.5942 2.0961-9.141 3.1409-13.634 3.1409h-0.76748c-2.1455 0-4.2394-0.40846-6.2818-1.2254-2.0445-0.81477-3.8826-1.9929-5.5164-3.5235-1.636-1.5328-2.9388-3.4225-3.9062-5.6691-0.97386-2.2466-1.4576-4.8005-1.4576-7.6619 0-1.6317 0.25582-3.2183 0.76748-4.749 0.50951-1.5328 1.1738-2.9624 1.9929-4.291 0.61053-1.019 1.5822-2.1692 2.9087-3.4483 1.3286-1.2748 2.8098-2.5282 4.4437-3.7514 1.6338-1.2276 3.3451-2.4271 5.1338-3.6031 1.7865-1.1717 3.5493-2.2208 5.2864-3.1409 3.8804-2.2444 7.9908-4.4437 12.333-6.5892 4.3426-2.1434 8.453-4.2351 12.333-6.2818v-3.8288c0-2.655-0.15269-5.31-0.45791-7.9694-0.30527-2.6529-1.0233-5.0542-2.1455-7.1997-1.1244-2.1455-2.7346-3.8826-4.8263-5.2111-2.0961-1.3243-4.8779-1.9907-8.352-1.9907-1.2254 0-2.4766 0.0774-3.7514 0.23003-1.2791 0.15269-2.4787 0.48585-3.6031 0.99536-0.91798 0.41062-1.7628 1.0491-2.526 1.9155-0.76749 0.87067-1.1502 1.866-1.1502 2.9882 0 1.5328 0.5869 2.7582 1.7628 3.6783 1.1738 0.91796 2.5002 1.8381 3.9836 2.756 1.4791 0.92013 2.8076 1.9929 3.9836 3.2183 1.1738 1.2254 1.7607 2.8098 1.7607 4.7489 0 3.272-1.0964 5.8238-3.2935 7.6619-2.1971 1.8402-4.7253 2.7582-7.5845 2.7582-1.7371 0-3.4462-0.33106-5.1316-0.99535-1.6854-0.66429-3.2204-1.6102-4.5984-2.8356-1.378-1.2254-2.5024-2.655-3.3688-4.291-0.86853-1.6317-1.3028-3.4204-1.3028-5.3616 0-4.1878 1.249-7.5587 3.7536-10.113 2.5002-2.5518 5.5938-4.5447 9.27-5.9765 3.6783-1.4275 7.5845-2.3734 11.721-2.8335 4.1362-0.46006 7.8382-0.69009 11.11-0.69009 3.7751 0 7.6082 0.35902 11.489 1.0728 3.8826 0.71589 7.4061 1.9434 10.573 3.6762 3.1645 1.7392 5.7722 4.1642 7.8167 7.2792 2.0402 3.1172 3.0635 7.0234 3.0635 11.723z" fill="#24337a"/>
  <path d="m132.79 82.68c1.3264 0.92012 2.8076 2.0961 4.4437 3.5235 1.6338 1.4339 3.1645 3.0656 4.5963 4.9037 1.4275 1.8402 2.6034 3.8568 3.5235 6.0517 0.92013 2.1992 1.378 4.5748 1.378 7.1245 0 3.9858-0.86639 7.6103-2.6013 10.88-1.7414 3.2699-4.19 6.0517-7.3566 8.3499-3.1667 2.2982-6.8944 4.0868-11.185 5.3638-4.2889 1.2748-9.0378 1.9155-14.249 1.9155-3.9836 0-7.9672-0.66643-11.951-1.9929-3.9836-1.3264-7.9199-3.0119-11.798-5.0564-0.61486-0.20208-1.0233-0.30743-1.2276-0.30743-1.5307 0-2.8592 0.30743-3.9836 0.92013-1.1244 0.61269-2.0939 1.2791-2.9108 1.9907-0.91796 0.92011-1.6854 1.8918-2.296 2.913h-1.6876v-35.855h1.8381c0.30741 2.3519 0.76748 4.6995 1.3802 7.0492 0.5095 2.0445 1.1716 4.2115 1.9907 6.5118 0.81694 2.2981 1.8402 4.4695 3.0656 6.5118 1.5307 2.554 3.0893 4.8027 4.6737 6.7418 1.5823 1.9413 3.3451 3.4225 5.2842 4.4415 2.3497 1.3307 4.9553 2.3261 7.8145 2.9904 2.8593 0.66429 5.669 0.99536 8.4273 0.99536 1.9391 0 3.9084-0.0516 5.8991-0.1527 1.9929-0.10109 3.8052-0.38482 5.4412-0.84273 1.6317-0.46005 2.9861-1.0985 4.0589-1.9155 1.0728-0.81693 1.6102-1.9929 1.6102-3.5257 0-2.4508-1.2017-4.7231-3.6031-6.817-2.4014-2.0918-5.3616-4.1384-8.8852-6.1291-3.5235-1.9929-7.3309-4.0846-11.413-6.2818-4.0889-2.195-7.8683-4.6737-11.34-7.4319-2.3519-1.8381-4.42-3.6009-6.2044-5.2864-1.7886-1.6854-3.3215-3.4203-4.5984-5.209-1.277-1.7865-2.2466-3.702-2.9108-5.7464-0.66429-2.0423-0.99537-4.3899-0.99537-7.0471 0-4.1878 0.86638-7.7888 2.6034-10.803 1.737-3.0119 3.9578-5.4885 6.6666-7.4319 2.7045-1.9391 5.6433-3.3709 8.8099-4.291 3.1667-0.91796 6.1785-1.378 9.0399-1.378 2.4508 0 4.5447 0.12899 6.2818 0.38482 1.7371 0.25367 3.4483 0.68794 5.1316 1.3006 1.6876 0.6127 3.4977 1.378 5.4412 2.2981 1.9391 0.92013 4.3899 2.0466 7.3545 3.3709 0.20424 0.10319 0.55896 0.15479 1.0728 0.15479 1.4275 0 2.6808-0.30743 3.7536-0.92013 1.0728-0.61269 1.9155-1.3264 2.5282-2.1455 0.71374-0.91797 1.3264-1.9391 1.8381-3.0656h1.5328l3.3709 28.96h-1.6833c-0.30742-1.2254-0.76748-2.6034-1.3802-4.1362-0.51166-1.3264-1.2276-2.8356-2.1455-4.521-0.91797-1.6854-2.0961-3.4977-3.5257-5.439-0.71372-0.91798-1.8639-2.195-3.4461-3.831-1.5844-1.6317-3.3472-3.0635-5.2864-4.2889-0.71589-0.40631-1.6618-0.96957-2.8334-1.6855-1.1781-0.71373-2.5303-1.4038-4.061-2.0681-1.5307-0.66429-3.1946-1.2276-4.979-1.6855-1.7908-0.4622-3.6547-0.69009-5.5938-0.69009-1.0212 0-2.1713 0.0537-3.4461 0.15269-1.2792 0.10319-2.453 0.33323-3.5257 0.69009-1.0727 0.35903-1.9671 0.86853-2.6808 1.5328-0.71588 0.66429-1.0728 1.5586-1.0728 2.6808 0 3.5751 1.1222 6.3355 3.3709 8.2746 2.2466 1.9391 5.1574 3.8288 8.7325 5.669 3.9836 2.0445 8.1456 4.2136 12.488 6.5118 4.3426 2.296 8.1456 4.5705 11.416 6.817" fill="#0063a8"/>
  <path d="m222.17 110.34c-0.91796 2.7066-2.1971 5.1854-3.831 7.4319l-2.1434 2.9108c-2.7582 3.2699-6.1291 5.7206-10.113 7.3524-3.9836 1.636-8.122 2.4529-12.411 2.4529-2.354 0-5.1338-0.15269-8.352-0.46005-3.2183-0.30528-6.5634-0.94162-10.035-1.9155-3.4741-0.96958-6.9202-2.3734-10.343-4.2136-3.4246-1.8359-6.4881-4.291-9.1926-7.3545-2.7088-3.0635-4.9016-6.8407-6.5892-11.338-1.6855-4.4931-2.5282-9.8547-2.5282-16.087 0-5.7206 0.76748-10.725 2.2981-15.016 1.5307-4.2889 3.5257-7.9672 5.9743-11.031 2.453-3.0656 5.2111-5.5938 8.2768-7.5867 3.0613-1.9907 6.0754-3.5472 9.04-4.6716 2.9603-1.1244 5.768-1.9155 8.4273-2.3755 2.6529-0.46005 4.85-0.69008 6.587-0.69008 10.93 0 19.535 1.7392 25.817 5.209 6.2818 3.4762 9.4248 8.6336 9.4248 15.476 0 1.9434-0.38482 3.7536-1.148 5.439-0.76748 1.6854-1.8166 3.1688-3.143 4.4437-1.3286 1.2791-2.8098 2.2745-4.4437 2.9882-1.636 0.71588-3.3709 1.0706-5.209 1.0706s-3.6267-0.35472-5.3616-1.0706c-1.7392-0.71375-3.2441-1.7091-4.521-2.9882-1.277-1.2748-2.2982-2.7582-3.0656-4.4437-0.76534-1.6855-1.148-3.4956-1.148-5.439 0-1.8381 0.38266-3.6504 1.148-5.439 0.76748-1.7865 1.8639-3.3451 3.2935-4.6737l0.4622-0.6127c0.71374-0.61269 1.5307-1.4296 2.4508-2.4508 0.92012-1.0212 1.3802-1.9391 1.3802-2.7582 0-0.92012-0.36117-1.6102-1.0728-2.0681-0.71803-0.46005-1.5866-0.78898-2.6056-0.99752-1.0233-0.20207-2.0681-0.33106-3.1409-0.38266-1.0728-0.0495-1.9692-0.0774-2.6808-0.0774-3.0656 0-5.5916 0.76748-7.5867 2.3003-1.9886 1.5307-3.5751 3.9062-4.7468 7.1245-1.1781 3.2161-1.9929 7.3545-2.4529 12.411-0.46007 5.0564-0.69009 11.16-0.69009 18.31 0 1.2254 0.0237 2.7582 0.0753 4.5963s0.0774 3.014 0.0774 3.5236c0 0.20638 0.0516 0.9975 0.15479 2.3755 0.0988 1.378 0.38268 3.0635 0.84273 5.0542 0.45791 1.9929 1.0964 4.1147 1.9155 6.3613 0.81694 2.2466 1.9391 4.3663 3.3709 6.357 1.4275 1.9929 3.1645 3.6783 5.2068 5.0564 2.0445 1.3802 4.5447 2.1735 7.5093 2.3755h1.6855c5.9227 0 10.979-2.1176 15.167-6.3591 4.19-4.2373 7.1503-9.6763 8.8873-16.317l1.2276 0.15269c-0.51167 2.6572-1.2276 5.3401-2.1455 8.0446" fill="#24337a"/>
  <path d="m0.43942 30.341c21.337-11.422 50.948-23.519 87.302-28.021 17.618-2.1799 46.73-5.4906 82.824 4.5404 22.932 6.372 40.803 15.941 52.825 23.528-6.9181 0.97603-13.836 1.952-20.752 2.928-13.583-6.4989-29.265-12.49-46.945-16.777-66.655-16.162-123.95 1.047-155.25 13.802" fill="#0063a8"/>
  <path d="m224.31 169.66c-21.339 11.42-50.948 23.519-87.302 28.021-17.618 2.1799-46.73 5.4906-82.826-4.5404-22.93-6.372-40.803-15.941-52.823-23.53 6.9181-0.97386 13.836-1.9499 20.752-2.9259 13.583 6.4989 29.265 12.49 46.945 16.777 66.655 16.162 123.95-1.0491 155.25-13.802" fill="#0063a8"/>
  <g transform="matrix(1.6124 0 0 1.6124 -254.75 -193.48)" fill="#24337a">
   <path transform="matrix(1.3333 0 0 -1.3333 163.39 212.37)" d="m0 0-0.362 1.862c-0.103 0.523-0.197 1.132-0.279 1.677h-0.042c-0.082-0.556-0.186-1.187-0.279-1.677l-0.362-1.862zm-1.437-0.675-0.466-2.199h-0.765l1.593 7.338h0.878l1.552-7.338h-0.786l-0.466 2.199z"/>
   <path transform="matrix(1.3333 0 0 -1.3333 166.23 210.99)" d="m0 0c0 0.621-0.031 0.936-0.041 1.361h0.692l0.042-0.653h0.021c0.217 0.425 0.599 0.74 1.127 0.74 0.465 0 0.858-0.239 1.045-0.805h0.02c0.135 0.261 0.31 0.468 0.496 0.599 0.197 0.141 0.435 0.206 0.693 0.206 0.673 0 1.2-0.522 1.2-1.862v-3.495h-0.786v3.299c0 0.686-0.093 1.35-0.703 1.35-0.331 0-0.621-0.294-0.735-0.783-0.02-0.142-0.03-0.305-0.03-0.479v-3.387h-0.786v3.452c0 0.588-0.104 1.197-0.693 1.197-0.321 0-0.652-0.294-0.745-0.849-0.021-0.141-0.031-0.294-0.031-0.457v-3.343h-0.786z"/>
   <path transform="matrix(1.3333 0 0 -1.3333 177.63 211.97)" d="m0 0c0.021 1.056-0.362 1.524-0.744 1.524-0.518 0-0.787-0.805-0.818-1.524zm-1.572-0.621c0.01-1.611 0.61-1.959 1.19-1.959 0.341 0 0.63 0.087 0.827 0.207l0.124-0.621c-0.279-0.163-0.703-0.251-1.096-0.251-1.2 0-1.821 1.035-1.821 2.646 0 1.71 0.683 2.777 1.686 2.777 1.024 0 1.427-1.133 1.427-2.33 0-0.197 0-0.338-0.01-0.469z"/>
   <path transform="matrix(1.3333 0 0 -1.3333 179.78 210.99)" d="m0 0c0 0.446-0.031 0.969-0.041 1.361h0.713l0.042-0.828h0.021c0.165 0.502 0.589 0.915 1.054 0.915 0.062 0 0.114-0.011 0.166-0.011v-0.86c-0.052 0.011-0.104 0.011-0.166 0.011-0.507 0-0.879-0.49-0.962-1.1-0.02-0.141-0.031-0.305-0.031-0.479v-2.918h-0.796z"/>
   <path transform="matrix(1.3333 0 0 -1.3333 82.893 1126)" d="m75.239 687.64h0.796v-5.27h-0.796zm0.859 1.361c0.01-0.327-0.186-0.545-0.486-0.545-0.259 0-0.455 0.218-0.455 0.545 0 0.326 0.207 0.544 0.465 0.544 0.29 0 0.476-0.218 0.476-0.544"/>
   <path transform="matrix(1.3333 0 0 -1.3333 189 216.03)" d="m0 0c-0.176-0.109-0.476-0.196-0.827-0.196-1.097 0-1.831 0.926-1.831 2.667 0 1.514 0.724 2.744 1.975 2.744 0.269 0 0.559-0.076 0.704-0.163l-0.155-0.686c-0.104 0.055-0.311 0.142-0.569 0.142-0.797 0-1.158-1.002-1.158-2.037 0-1.23 0.444-1.97 1.178-1.97 0.217 0 0.393 0.054 0.58 0.142z"/>
   <path transform="matrix(1.3333 0 0 -1.3333 192.44 212.58)" d="m0 0c-0.414 0-1.375-0.076-1.375-1.219 0-0.686 0.33-0.937 0.61-0.937 0.351 0 0.651 0.272 0.744 0.795 0.021 0.098 0.021 0.207 0.021 0.294zm0.114-2.722-0.052 0.555h-0.031c-0.217-0.402-0.569-0.642-0.993-0.642-0.672 0-1.189 0.599-1.189 1.503 0 1.317 1.003 1.905 2.13 1.916v0.163c0 0.708-0.165 1.198-0.796 1.198-0.31 0-0.59-0.109-0.827-0.272l-0.176 0.588c0.207 0.163 0.672 0.348 1.169 0.348 1.003 0 1.437-0.697 1.437-1.883v-2.276c0-0.403 0-0.861 0.052-1.198z"/>
   <path transform="matrix(1.3333 0 0 -1.3333 194.98 210.99)" d="m0 0c0 0.621-0.031 0.936-0.041 1.361h0.692l0.042-0.631h0.021c0.217 0.424 0.62 0.718 1.147 0.718 0.693 0 1.21-0.544 1.21-1.818v-3.539h-0.796v3.397c0 0.621-0.114 1.252-0.693 1.252-0.33 0-0.651-0.294-0.755-0.86-0.02-0.13-0.031-0.294-0.031-0.468v-3.321h-0.796z"/>
   <path transform="matrix(1.3333 0 0 -1.3333 202.6 214.91)" d="m0 0c0.238-0.163 0.651-0.294 1.003-0.294 0.724 0 1.158 0.501 1.158 1.241 0 0.675-0.372 1.089-0.92 1.524-0.548 0.403-1.313 1.089-1.313 2.037 0 1.11 0.734 1.927 1.84 1.927 0.435 0 0.817-0.142 0.983-0.272l-0.197-0.719c-0.176 0.131-0.465 0.25-0.827 0.25-0.682 0-1.003-0.544-1.003-1.045 0-0.73 0.362-1.013 1.024-1.514 0.837-0.62 1.21-1.295 1.21-2.111 0-1.264-0.848-2.059-1.955-2.059-0.476 0-0.982 0.164-1.179 0.316z"/>
   <path transform="matrix(1.3333 0 0 -1.3333 208.58 212.69)" d="m0 0c0-0.871 0.145-2.058 0.869-2.058 0.682 0 0.817 1.241 0.817 2.058 0 0.806-0.135 2.047-0.838 2.047-0.714 0-0.848-1.241-0.848-2.047m2.492 0c0-2.036-0.899-2.722-1.665-2.722-0.899 0-1.623 0.86-1.623 2.711 0 1.927 0.817 2.733 1.675 2.733 0.889 0 1.613-0.882 1.613-2.722"/>
   <path transform="matrix(1.3333 0 0 -1.3333 216.34 216.03)" d="m0 0c-0.176-0.109-0.476-0.196-0.827-0.196-1.097 0-1.831 0.926-1.831 2.667 0 1.514 0.724 2.744 1.975 2.744 0.269 0 0.559-0.076 0.704-0.163l-0.155-0.686c-0.104 0.055-0.311 0.142-0.569 0.142-0.797 0-1.158-1.002-1.158-2.037 0-1.23 0.444-1.97 1.178-1.97 0.217 0 0.393 0.054 0.58 0.142z"/>
   <path transform="matrix(1.3333 0 0 -1.3333 82.893 1126)" d="m100.77 687.64h0.796v-5.27h-0.796zm0.858 1.361c0.01-0.327-0.186-0.545-0.486-0.545-0.259 0-0.455 0.218-0.455 0.545 0 0.326 0.206 0.544 0.465 0.544 0.29 0 0.476-0.218 0.476-0.544"/>
   <path transform="matrix(1.3333 0 0 -1.3333 222.63 211.97)" d="m0 0c0.021 1.056-0.362 1.524-0.744 1.524-0.518 0-0.786-0.805-0.818-1.524zm-1.572-0.621c0.01-1.611 0.61-1.959 1.189-1.959 0.342 0 0.631 0.087 0.828 0.207l0.124-0.621c-0.279-0.163-0.703-0.251-1.096-0.251-1.2 0-1.821 1.035-1.821 2.646 0 1.71 0.683 2.777 1.686 2.777 1.024 0 1.427-1.133 1.427-2.33 0-0.197 0-0.338-0.01-0.469z"/>
   <path transform="matrix(1.3333 0 0 -1.3333 226.09 207.32)" d="m0 0v-1.394h0.962v-0.642h-0.962v-3.125c0-0.686 0.238-0.871 0.527-0.871 0.124 0 0.228 0.011 0.321 0.032l0.031-0.642c-0.145-0.054-0.331-0.087-0.589-0.087-0.311 0-0.59 0.087-0.786 0.316-0.197 0.239-0.3 0.599-0.3 1.328v3.049h-0.611v0.642h0.611v1.154z"/>
   <path transform="matrix(1.3333 0 0 -1.3333 229 209.18)" d="m0 0 0.662-3.027c0.093-0.414 0.145-0.762 0.207-1.089h0.02c0.052 0.294 0.135 0.697 0.217 1.078l0.59 3.038h0.786l-0.817-3.387c-0.31-1.328-0.652-2.602-1.241-3.397-0.352-0.468-0.724-0.718-0.9-0.805l-0.289 0.718c0.227 0.131 0.475 0.36 0.703 0.665 0.207 0.272 0.372 0.631 0.455 0.881 0.041 0.131 0.052 0.186 0.052 0.262 0 0.065 0 0.131-0.021 0.196l-1.262 4.867z"/>
   <path transform="matrix(1.3333 0 0 -1.3333 236.16 212.69)" d="m0 0c0-0.871 0.145-2.058 0.869-2.058 0.682 0 0.817 1.241 0.817 2.058 0 0.806-0.135 2.047-0.838 2.047-0.714 0-0.848-1.241-0.848-2.047m2.492 0c0-2.036-0.9-2.722-1.665-2.722-0.899 0-1.624 0.86-1.624 2.711 0 1.927 0.818 2.733 1.676 2.733 0.889 0 1.613-0.882 1.613-2.722"/>
   <path transform="matrix(1.3333 0 0 -1.3333 240.89 216.2)" d="m0 0v4.627h-0.631v0.643h0.631v0.316c0 0.566 0.083 1.154 0.445 1.589 0.289 0.338 0.692 0.447 1.003 0.447 0.269 0 0.476-0.055 0.62-0.131l-0.134-0.653c-0.093 0.043-0.228 0.087-0.434 0.087-0.569 0-0.704-0.643-0.704-1.328v-0.327h0.91v-0.643h-0.91v-4.627z"/>
   <path transform="matrix(1.3333 0 0 -1.3333 250.12 216.03)" d="m0 0c-0.217-0.12-0.559-0.196-0.992-0.196-1.366 0-2.338 1.155-2.338 3.648 0 2.896 1.365 3.822 2.461 3.822 0.424 0 0.724-0.088 0.869-0.186l-0.176-0.707c-0.165 0.076-0.341 0.152-0.703 0.152-0.745 0-1.613-0.762-1.613-3.005s0.786-2.984 1.634-2.984c0.299 0 0.568 0.077 0.734 0.163z"/>
   <path transform="matrix(1.3333 0 0 -1.3333 251.05 210.99)" d="m0 0c0 0.446-0.031 0.969-0.041 1.361h0.713l0.042-0.828h0.021c0.165 0.502 0.589 0.915 1.054 0.915 0.062 0 0.114-0.011 0.166-0.011v-0.86c-0.052 0.011-0.104 0.011-0.166 0.011-0.507 0-0.879-0.49-0.962-1.1-0.02-0.141-0.03-0.305-0.03-0.479v-2.918h-0.797z"/>
   <path transform="matrix(1.3333 0 0 -1.3333 82.893 1126)" d="m128.7 687.64h0.796v-5.27h-0.796zm0.858 1.361c0.01-0.327-0.186-0.545-0.486-0.545-0.258 0-0.455 0.218-0.455 0.545 0 0.326 0.207 0.544 0.466 0.544 0.289 0 0.475-0.218 0.475-0.544"/>
   <path transform="matrix(1.3333 0 0 -1.3333 257.03 210.99)" d="m0 0c0 0.621-0.031 0.936-0.041 1.361h0.692l0.042-0.653h0.021c0.217 0.425 0.599 0.74 1.127 0.74 0.465 0 0.858-0.239 1.044-0.805h0.021c0.134 0.261 0.31 0.468 0.496 0.599 0.197 0.141 0.435 0.206 0.693 0.206 0.673 0 1.2-0.522 1.2-1.862v-3.495h-0.786v3.299c0 0.686-0.093 1.35-0.703 1.35-0.331 0-0.621-0.294-0.734-0.783-0.021-0.142-0.032-0.305-0.032-0.479v-3.387h-0.785v3.452c0 0.588-0.104 1.197-0.693 1.197-0.321 0-0.652-0.294-0.745-0.849-0.021-0.141-0.031-0.294-0.031-0.457v-3.343h-0.786z"/>
   <path transform="matrix(1.3333 0 0 -1.3333 82.893 1126)" d="m137.01 687.64h0.796v-5.27h-0.796zm0.858 1.361c0.01-0.327-0.186-0.545-0.486-0.545-0.259 0-0.455 0.218-0.455 0.545 0 0.326 0.207 0.544 0.465 0.544 0.29 0 0.476-0.218 0.476-0.544"/>
   <path transform="matrix(1.3333 0 0 -1.3333 268.12 210.99)" d="m0 0c0 0.621-0.031 0.936-0.041 1.361h0.692l0.042-0.631h0.021c0.217 0.424 0.62 0.718 1.147 0.718 0.693 0 1.211-0.544 1.211-1.818v-3.539h-0.797v3.397c0 0.621-0.113 1.252-0.693 1.252-0.331 0-0.651-0.294-0.755-0.86-0.02-0.13-0.031-0.294-0.031-0.468v-3.321h-0.796z"/>
   <path transform="matrix(1.3333 0 0 -1.3333 274.47 212.69)" d="m0 0c0-0.871 0.145-2.058 0.869-2.058 0.682 0 0.817 1.241 0.817 2.058 0 0.806-0.135 2.047-0.838 2.047-0.714 0-0.848-1.241-0.848-2.047m2.492 0c0-2.036-0.9-2.722-1.665-2.722-0.899 0-1.624 0.86-1.624 2.711 0 1.927 0.818 2.733 1.676 2.733 0.889 0 1.613-0.882 1.613-2.722"/>
   <path transform="matrix(1.3333 0 0 -1.3333 82.893 1126)" d="m147.07 689.91h0.796v-7.535h-0.796z"/>
   <path transform="matrix(1.3333 0 0 -1.3333 282.39 212.69)" d="m0 0c0-0.871 0.145-2.058 0.869-2.058 0.682 0 0.817 1.241 0.817 2.058 0 0.806-0.135 2.047-0.838 2.047-0.714 0-0.848-1.241-0.848-2.047m2.492 0c0-2.036-0.9-2.722-1.665-2.722-0.899 0-1.624 0.86-1.624 2.711 0 1.927 0.818 2.733 1.676 2.733 0.889 0 1.613-0.882 1.613-2.722"/>
   <path transform="matrix(1.3333 0 0 -1.3333 289.88 211.6)" d="m0 0c0 0.131-0.01 0.272-0.041 0.381-0.093 0.359-0.269 0.806-0.724 0.806-0.579 0-0.89-0.817-0.89-1.982 0-1.35 0.404-1.959 0.89-1.959 0.238 0 0.548 0.119 0.713 0.75 0.042 0.164 0.052 0.327 0.052 0.48zm0.827 1.818c-0.01-0.37-0.041-0.838-0.041-1.644v-2.951c0-1.382-0.165-1.905-0.496-2.286-0.3-0.359-0.776-0.566-1.334-0.566-0.424 0-0.838 0.109-1.097 0.261l0.187 0.653c0.196-0.108 0.527-0.228 0.93-0.228 0.631 0 1.024 0.414 1.024 1.611v0.534h-0.021c-0.176-0.414-0.538-0.643-0.962-0.643-0.889 0-1.468 1.056-1.468 2.603 0 1.938 0.838 2.744 1.572 2.744 0.538 0 0.786-0.371 0.931-0.687h0.02l0.042 0.599z"/>
   <path transform="matrix(1.3333 0 0 -1.3333 292.96 209.18)" d="m0 0 0.662-3.027c0.093-0.414 0.145-0.762 0.207-1.089h0.02c0.052 0.294 0.135 0.697 0.217 1.078l0.59 3.038h0.786l-0.817-3.387c-0.31-1.328-0.652-2.602-1.241-3.397-0.352-0.468-0.724-0.718-0.9-0.805l-0.289 0.718c0.227 0.131 0.475 0.36 0.703 0.665 0.207 0.272 0.372 0.631 0.455 0.881 0.041 0.131 0.052 0.186 0.052 0.262 0 0.065 0 0.131-0.021 0.196l-1.262 4.867z"/>
  </g>
 </g>
</svg>
